<?xml version="1.0" encoding="UTF-8" standalone="no"?>
<svg
   xmlns:dc="http://purl.org/dc/elements/1.1/"
   xmlns:cc="http://creativecommons.org/ns#"
   xmlns:rdf="http://www.w3.org/1999/02/22-rdf-syntax-ns#"
   xmlns:svg="http://www.w3.org/2000/svg"
   xmlns="http://www.w3.org/2000/svg"
   viewBox="0 0 369.17334 70.360001"
   height="70.360001"
   width="369.17334"
   xml:space="preserve"
   id="svg2"
   version="1.1"><metadata
     id="metadata8"><rdf:RDF><cc:Work
         rdf:about=""><dc:format>image/svg+xml</dc:format><dc:type
           rdf:resource="http://purl.org/dc/dcmitype/StillImage" /></cc:Work></rdf:RDF></metadata><defs
     id="defs6" /><g
     transform="matrix(1.3333333,0,0,-1.3333333,0,70.36)"
     id="g10"><g
       transform="scale(0.1)"
       id="g12"><path
         id="path14"
         style="fill:#bfb290;fill-opacity:1;fill-rule:nonzero;stroke:none"
         d="m 1594.72,424.977 -28.81,-137.293 c -8.63,-41.289 -43.67,-80.641 -88.81,-80.641 -23.98,0 -43.2,11.031 -43.2,34.551 0,8.648 3.85,29.273 5.76,38.394 l 31.7,144.989 h -40.82 l -30.23,-141.629 c -4.32,-19.2 -7.2,-37.91 -7.2,-48.477 0,-43.691 22.55,-63.848 69.13,-63.848 34.08,0 67.68,15.372 88.32,43.204 h 0.96 l -7.68,-37.442 h 39.36 l 52.32,248.192 h -40.8" /><path
         id="path16"
         style="fill:#bfb290;fill-opacity:1;fill-rule:nonzero;stroke:none"
         d="m 1750.23,207.043 c -40.31,0 -62.4,27.359 -62.4,64.312 0,51.844 35.04,123.375 96.97,123.375 44.65,0 63.85,-25.437 63.85,-65.769 0,-54.734 -33.62,-121.918 -98.42,-121.918 z m 41.76,223.695 c -33.11,0 -57.6,-9.121 -82.07,-41.289 h -0.98 l 8.65,35.528 h -38.4 l -72.5,-343.2309 h 40.34 l 26.4,132.9729 h 0.96 c 9.59,-33.125 47.03,-43.696 77.28,-43.696 86.9,0 137.78,82.579 137.78,157.938 0,60.488 -34.08,101.777 -97.46,101.777" /><path
         id="path18"
         style="fill:#bfb290;fill-opacity:1;fill-rule:nonzero;stroke:none"
         d="m 2012.3,207.043 c -40.31,0 -62.4,27.359 -62.4,64.312 0,51.844 35.04,123.375 96.97,123.375 44.65,0 63.85,-25.437 63.85,-65.769 0,-54.734 -33.62,-121.918 -98.42,-121.918 z m 41.78,223.695 c -33.13,0 -57.62,-9.121 -82.09,-41.289 h -0.96 l 8.63,35.528 h -38.4 L 1868.78,81.7461 h 40.32 l 26.4,132.9729 h 0.96 c 9.61,-33.125 47.05,-43.696 77.29,-43.696 86.89,0 137.77,82.579 137.77,157.938 0,60.488 -34.08,101.777 -97.44,101.777" /><path
         id="path20"
         style="fill:#bfb290;fill-opacity:1;fill-rule:nonzero;stroke:none"
         d="m 2223.98,519.547 -72.01,-342.762 h 40.8 l 72.01,342.762 h -40.8" /><path
         id="path22"
         style="fill:#bfb290;fill-opacity:1;fill-rule:nonzero;stroke:none"
         d="m 2348.76,519.547 h -41.26 l -10.57,-49.922 h 41.29 l 10.54,49.922" /><path
         id="path24"
         style="fill:#bfb290;fill-opacity:1;fill-rule:nonzero;stroke:none"
         d="m 2287.81,424.977 -51.86,-248.192 h 40.82 l 51.84,248.192 h -40.8" /><path
         id="path26"
         style="fill:#bfb290;fill-opacity:1;fill-rule:nonzero;stroke:none"
         d="m 2461.09,394.73 c 45.12,0 60.96,-35.046 58.08,-70.085 h -144.02 c 12.01,38.398 37.93,70.085 85.94,70.085 z m -28.81,-187.687 c -33.12,0 -64.32,21.598 -64.32,60 0,7.184 0.47,14.391 1.43,21.598 h 186.74 c 1.44,6.718 3.85,19.207 3.85,32.164 0,70.09 -32.17,109.933 -105.14,109.933 -68.17,0 -127.68,-64.804 -127.68,-159.871 0,-43.199 23.03,-99.844 105.12,-99.844 54.24,0 99.38,28.813 112.32,83.536 h -40.8 c -11.52,-30.719 -35.99,-47.516 -71.52,-47.516" /><path
         id="path28"
         style="fill:#bfb290;fill-opacity:1;fill-rule:nonzero;stroke:none"
         d="m 2689.08,317.445 c -32.64,13.438 -65.28,22.559 -65.28,45.598 0,24.969 27.84,31.687 52.8,31.687 28.32,0 53.28,-14.402 51.36,-42.722 h 40.8 c 0,58.086 -47.51,78.73 -93.61,78.73 -46.07,0 -92.17,-25.449 -92.17,-71.523 0,-37.453 32.66,-54.258 65.78,-67.211 32.64,-13.441 65.28,-23.051 65.28,-47.055 0,-28.316 -30.24,-37.906 -56.64,-37.906 -34.08,0 -65.3,11.031 -63.36,47.984 h -40.8 c -0.49,-63.355 43.67,-84.004 100.31,-84.004 48.01,0 101.29,21.606 101.29,76.821 0,38.883 -33.13,56.156 -65.76,69.601" /><path
         id="path30"
         style="fill:#bfb290;fill-opacity:1;fill-rule:nonzero;stroke:none"
         d="m 1290.4,365.445 -46.08,12.481 c -31.2,8.652 -55.7,22.09 -55.7,55.215 0,40.8 45.61,56.152 79.22,56.152 47.04,0 80.16,-16.797 78.72,-71.035 h 45.61 c 2.39,76.328 -56.65,109.441 -124.33,109.441 -60.97,0 -124.81,-33.113 -124.81,-99.363 0,-50.41 36,-75.371 76.8,-86.406 l 46.57,-12.481 c 33.6,-9.121 60.96,-21.601 60.96,-56.644 0,-46.094 -43.2,-65.762 -85.92,-65.762 -41.09,0 -72.7,11.031 -85.33,41.656 l -40.62,-22.105 c 20.18,-39.848 66,-57.973 124.02,-57.973 61.93,0 133.45,33.613 133.45,104.184 0,61.437 -39.84,81.117 -82.56,92.64" /><path
         id="path32"
         style="fill:#ed0f93;fill-opacity:1;fill-rule:nonzero;stroke:none"
         d="m 60.0039,348.168 c 0,-65.777 30.7227,-130.578 104.1721,-130.578 73.445,0 104.168,64.801 104.168,130.578 0,65.762 -30.723,130.578 -104.168,130.578 -73.4494,0 -104.1721,-64.816 -104.1721,-130.578 z m 268.3481,0 c 0,-97.926 -61.45,-179.547 -164.176,-179.547 C 61.4453,168.621 0,250.242 0,348.168 c 0,97.922 61.4453,179.531 164.176,179.531 102.726,0 164.176,-81.609 164.176,-179.531" /><path
         id="path34"
         style="fill:#ed0f93;fill-opacity:1;fill-rule:nonzero;stroke:none"
         d="m 328.316,424.977 h 40.801 v 20.644 c 0,63.359 33.125,73.926 68.649,73.926 17.277,0 29.757,-0.969 38.402,-3.359 v -42.735 c -7.203,1.922 -14.398,2.891 -25.445,2.891 -14.879,0 -26.879,-5.285 -26.879,-25.93 v -25.437 h 46.562 V 384.176 H 423.844 V 176.785 h -54.727 v 207.391 h -40.801 v 40.801" /><path
         id="path36"
         style="fill:#ed0f93;fill-opacity:1;fill-rule:nonzero;stroke:none"
         d="m 448.316,424.977 h 40.801 v 20.644 c 0,63.359 33.125,73.926 68.649,73.926 17.277,0 29.757,-0.969 38.402,-3.359 v -42.735 c -7.203,1.922 -14.398,2.891 -25.445,2.891 -14.879,0 -26.879,-5.285 -26.879,-25.93 v -25.437 h 46.562 V 384.176 H 543.844 V 176.785 h -54.727 v 207.391 h -40.801 v 40.801" /><path
         id="path38"
         style="fill:#ed0f93;fill-opacity:1;fill-rule:nonzero;stroke:none"
         d="m 602.871,424.977 h 54.723 V 176.785 h -54.723 z m 0,94.57 h 54.723 v -51.856 h -54.723 v 51.856" /><path
         id="path40"
         style="fill:#ed0f93;fill-opacity:1;fill-rule:nonzero;stroke:none"
         d="m 862.086,341.93 c -4.32,30.234 -26.402,46.562 -56.648,46.562 -28.321,0 -68.165,-14.883 -68.165,-90.254 0,-41.273 18.239,-84.968 65.762,-84.968 31.688,0 53.766,21.132 59.051,56.64 h 54.723 c -10.079,-64.312 -49.922,-99.844 -113.774,-99.844 -77.762,0 -120.484,55.215 -120.484,128.172 0,74.891 40.801,133.457 122.41,133.457 57.602,0 106.566,-28.808 111.848,-89.765 h -54.723" /><path
         id="path42"
         style="fill:#ed0f93;fill-opacity:1;fill-rule:nonzero;stroke:none"
         d="m 1109.29,322.73 c -1.93,34.559 -25.45,65.762 -62.41,65.762 -37.92,0 -63.845,-28.808 -65.282,-65.762 z M 981.598,286.727 c 0,-38.883 21.112,-73.457 66.722,-73.457 31.68,0 50.88,13.925 60.48,41.289 h 51.85 c -12,-54.254 -58.09,-84.493 -112.33,-84.493 -77.769,0 -121.449,54.239 -121.449,130.575 0,70.566 46.082,131.054 120.009,131.054 78.25,0 126.25,-70.566 117.13,-144.968 H 981.598" /><path
         id="path44"
         style="fill:#6a6253;fill-opacity:1;fill-rule:nonzero;stroke:none"
         d="M 43.0781,75.0977 H 30.5547 c 2.9375,12.6367 2.9375,27.7463 18.7226,29.0903 l -1.1289,-5.4107 c -5.9765,-0.8945 -7.3281,-6.082 -8.6796,-11.1601 h 6.3125 z m -20.5234,0 H 10.0352 c 2.9336,12.6367 2.9336,27.7463 18.7187,29.0903 l -1.125,-5.4107 c -5.9766,-0.8945 -7.332,-6.082 -8.6836,-11.1601 h 6.3125 L 22.5547,75.0977" /><path
         id="path46"
         style="fill:#6a6253;fill-opacity:1;fill-rule:nonzero;stroke:none"
         d="M 60.4531,104.188 H 71.168 L 54.2539,23.6797 H 43.5391 l 16.914,80.5083" /><path
         id="path48"
         style="fill:#6a6253;fill-opacity:1;fill-rule:nonzero;stroke:none"
         d="m 106.684,64.8438 c 0.457,6.6484 -5.411,10.0273 -12.0668,10.0273 -5.8633,0 -12.3984,-1.5703 -12.3984,-7.4414 0,-5.4102 7.664,-7.5469 15.3359,-10.7109 7.6643,-3.1563 15.4493,-7.2149 15.4493,-16.3477 0,-12.9688 -12.52,-18.0469 -23.7931,-18.0469 -13.3086,0 -23.6836,4.8555 -23.5703,19.7344 h 9.5821 c -0.4454,-8.6797 6.8828,-11.2773 14.8828,-11.2773 6.207,0 13.3125,2.2539 13.3125,8.914 0,5.6367 -7.6719,7.8945 -15.336,11.0469 -7.7851,3.0469 -15.4492,6.9922 -15.4492,15.7891 0,10.8203 10.8242,16.7968 21.6485,16.7968 10.8237,0 21.9887,-4.8437 21.9887,-18.4843 h -9.586" /><path
         id="path50"
         style="fill:#6a6253;fill-opacity:1;fill-rule:nonzero;stroke:none"
         d="m 166.582,81.9805 h 11.609 l -1.8,-8.4571 h -11.618 l -7.214,-34.2851 c -0.114,-1.3477 -0.336,-2.4805 -0.336,-3.8281 0,-3.0469 2.816,-3.9454 5.75,-3.9454 1.914,0 3.722,0.4493 5.523,1.0157 l -1.687,-8.8008 c -2.258,-0.4492 -4.512,-0.6719 -6.77,-0.6719 -7.105,0 -13.082,2.0313 -13.082,9.4727 0,1.6914 0.231,3.0351 0.566,4.8437 l 7.668,36.1992 h -9.808 l 1.805,8.4571 h 9.808 l 3.609,17.2461 h 9.586 l -3.609,-17.2461" /><path
         id="path52"
         style="fill:#6a6253;fill-opacity:1;fill-rule:nonzero;stroke:none"
         d="m 188.355,104.188 h 9.583 l -6.879,-30.7817 0.226,-0.2227 c 4.848,6.543 12.742,10.1445 20.746,10.1445 10.938,0 16.239,-4.7343 16.239,-14.9883 0,-2.4804 -0.676,-6.8867 -1.692,-11.3984 l -7.101,-33.2617 h -9.582 l 7.441,34.0547 c 0.445,2.1484 1.352,6.9922 1.352,9.0234 0,5.5274 -4.512,8.1133 -10.153,8.1133 -5.297,0 -10.824,-2.9297 -14.433,-6.7656 -3.379,-2.9297 -5.188,-7.5508 -6.426,-12.1758 l -6.77,-32.25 h -9.578 l 17.027,80.5083" /><path
         id="path54"
         style="fill:#6a6253;fill-opacity:1;fill-rule:nonzero;stroke:none"
         d="m 252.754,92.4727 h -9.703 l 2.484,11.7153 h 9.699 z m -11.84,-10.4922 h 9.582 L 238.32,23.6797 h -9.586 l 12.18,58.3008" /><path
         id="path56"
         style="fill:#6a6253;fill-opacity:1;fill-rule:nonzero;stroke:none"
         d="m 289.066,64.8438 c 0.454,6.6484 -5.41,10.0273 -12.062,10.0273 -5.867,0 -12.402,-1.5703 -12.402,-7.4414 0,-5.4102 7.664,-7.5469 15.336,-10.7109 7.664,-3.1563 15.449,-7.2149 15.449,-16.3477 0,-12.9688 -12.52,-18.0469 -23.793,-18.0469 -13.309,0 -23.684,4.8555 -23.571,19.7344 h 9.582 c -0.449,-8.6797 6.883,-11.2773 14.883,-11.2773 6.207,0 13.313,2.2539 13.313,8.914 0,5.6367 -7.672,7.8945 -15.336,11.0469 -7.785,3.0469 -15.449,6.9922 -15.449,15.7891 0,10.8203 10.824,16.7968 21.648,16.7968 10.824,0 21.988,-4.8437 21.988,-18.4843 h -9.586" /><path
         id="path58"
         style="fill:#6a6253;fill-opacity:1;fill-rule:nonzero;stroke:none"
         d="m 350.313,31.6875 c 14.433,0 21.195,16.2422 21.195,27.9609 0,9.1407 -4.848,15.2227 -14.883,15.2227 -13.418,0 -20.633,-16.7969 -20.633,-27.5078 0,-8.3516 4.735,-15.6758 14.321,-15.6758 z m 25.484,0.4492 C 374.441,26.1602 372.98,20.3047 371.285,16.2383 366.324,4.62891 357.191,0 344.785,0 c -11.84,0 -22.89,5.07813 -23.226,18.0469 h 9.586 c 0.558,-7.7852 7.328,-9.58987 14.656,-9.58987 14.883,0 17.816,11.84767 20.859,23.45707 l -0.222,0.2226 c -4.172,-6.1992 -10.829,-8.9062 -18.157,-8.9062 -14.433,0 -21.875,10.2656 -21.875,24.1328 0,17.2539 11.387,35.9648 30.332,35.9648 8.457,0 16.801,-4.5117 18.496,-11.8359 v -0.2227 h 0.227 l 1.801,10.711 h 9.023 L 375.797,32.1367" /><path
         id="path60"
         style="fill:#6a6253;fill-opacity:1;fill-rule:nonzero;stroke:none"
         d="m 410.996,30.7813 c 13.984,0 21.649,16.1328 21.649,27.625 0,9.1445 -4.848,16.4648 -15.336,16.4648 -14.657,0 -22.325,-16.0039 -22.325,-28.0742 0,-9.5781 5.524,-16.0156 16.012,-16.0156 z m 6.992,52.5468 c 15.563,0 24.242,-8.5625 24.242,-24.1289 0,-19.0547 -11.839,-36.875 -32.25,-36.875 -15.335,0 -24.582,10.2656 -24.582,24.3633 0,19.0547 12.18,36.6406 32.59,36.6406" /><path
         id="path62"
         style="fill:#6a6253;fill-opacity:1;fill-rule:nonzero;stroke:none"
         d="m 470.434,30.7813 c 13.98,0 21.652,16.1328 21.652,27.625 0,9.1445 -4.852,16.4648 -15.34,16.4648 -14.656,0 -22.32,-16.0039 -22.32,-28.0742 0,-9.5781 5.519,-16.0156 16.008,-16.0156 z m 6.992,52.5468 c 15.562,0 24.246,-8.5625 24.246,-24.1289 0,-19.0547 -11.844,-36.875 -32.254,-36.875 -15.336,0 -24.578,10.2656 -24.578,24.3633 0,19.0547 12.176,36.6406 32.586,36.6406" /><path
         id="path64"
         style="fill:#6a6253;fill-opacity:1;fill-rule:nonzero;stroke:none"
         d="m 528.855,30.7813 c 14.547,0 22.782,16.8085 22.782,28.9843 0,8.6797 -5.188,15.1055 -14.66,15.1055 -15.223,0 -23.114,-15.7773 -23.114,-28.6406 0,-9.4727 4.504,-15.4492 14.992,-15.4492 z m 24.813,-7.1016 h -9.023 l 2.031,8.3398 h -0.227 c -5.75,-7.5468 -11.504,-9.6953 -19.281,-9.6953 -14.887,0 -22.891,9.6953 -22.891,23.9063 0,17.7031 11.953,37.0976 32.364,37.0976 7.097,0 15.898,-2.4804 18.156,-10.2539 h 0.223 l 6.203,31.1138 h 9.468 L 553.668,23.6797" /><path
         id="path66"
         style="fill:#6a6253;fill-opacity:1;fill-rule:nonzero;stroke:none"
         d="m 603.414,73.5234 h -9.922 l 1.688,8.4571 h 9.925 c 3.043,11.8359 3.493,23.1175 18.833,23.1175 2.703,0 5.414,-0.227 8.003,-0.91 l -1.574,-8.1138 c -1.472,0.3438 -3.047,0.5664 -4.512,0.5664 -9.585,0 -9.023,-7.5586 -11.281,-14.6601 h 11.168 L 624.16,73.5234 H 612.887 L 602.172,23.6797 h -9.582 l 10.824,49.8437" /><path
         id="path68"
         style="fill:#6a6253;fill-opacity:1;fill-rule:nonzero;stroke:none"
         d="m 645.598,30.7813 c 13.98,0 21.648,16.1328 21.648,27.625 0,9.1445 -4.848,16.4648 -15.336,16.4648 -14.66,0 -22.324,-16.0039 -22.324,-28.0742 0,-9.5781 5.519,-16.0156 16.012,-16.0156 z m 6.992,52.5468 c 15.558,0 24.242,-8.5625 24.242,-24.1289 0,-19.0547 -11.844,-36.875 -32.254,-36.875 -15.336,0 -24.578,10.2656 -24.578,24.3633 0,19.0547 12.18,36.6406 32.59,36.6406" /><path
         id="path70"
         style="fill:#6a6253;fill-opacity:1;fill-rule:nonzero;stroke:none"
         d="m 689.137,81.9805 h 9.015 l -2.816,-12.5157 h 0.227 c 4.511,8.0079 11.386,13.8633 21.199,13.8633 1.129,0 2.254,0.2266 3.379,0 l -2.25,-10.2539 c -0.903,0.1094 -1.918,0.1094 -2.825,0.1094 -2.367,0 -3.496,0 -5.75,-0.5664 -5.296,-1.3477 -9.355,-4.8438 -12.402,-9.4727 -2.594,-3.7187 -3.945,-9.2382 -4.848,-13.6406 l -5.523,-25.8242 h -9.586 l 12.18,58.3008" /><path
         id="path72"
         style="fill:#6a6253;fill-opacity:1;fill-rule:nonzero;stroke:none"
         d="m 760.754,81.9805 h 11.609 l -1.8,-8.4571 H 758.945 L 751.73,39.2383 c -0.113,-1.3477 -0.339,-2.4805 -0.339,-3.8281 0,-3.0469 2.82,-3.9454 5.754,-3.9454 1.914,0 3.718,0.4493 5.523,1.0157 l -1.691,-8.8008 c -2.254,-0.4492 -4.512,-0.6719 -6.766,-0.6719 -7.106,0 -13.082,2.0313 -13.082,9.4727 0,1.6914 0.226,3.0351 0.566,4.8437 l 7.664,36.1992 h -9.808 l 1.804,8.4571 h 9.813 l 3.605,17.2461 h 9.586 l -3.605,-17.2461" /><path
         id="path74"
         style="fill:#6a6253;fill-opacity:1;fill-rule:nonzero;stroke:none"
         d="m 782.523,104.188 h 9.586 l -6.879,-30.7817 0.223,-0.2227 c 4.852,6.543 12.746,10.1445 20.746,10.1445 10.942,0 16.242,-4.7343 16.242,-14.9883 0,-2.4804 -0.679,-6.8867 -1.695,-11.3984 l -7.098,-33.2617 h -9.585 l 7.441,34.0547 c 0.449,2.1484 1.351,6.9922 1.351,9.0234 0,5.5274 -4.511,8.1133 -10.152,8.1133 -5.297,0 -10.824,-2.9297 -14.433,-6.7656 -3.375,-2.9297 -5.184,-7.5508 -6.422,-12.1758 l -6.77,-32.25 h -9.582 l 17.027,80.5083" /><path
         id="path76"
         style="fill:#6a6253;fill-opacity:1;fill-rule:nonzero;stroke:none"
         d="m 869.703,58.4063 c 0.68,8.2343 -3.043,16.4648 -13.644,16.4648 -11.274,0 -17.364,-7.4414 -20.184,-16.4648 z M 834.52,49.9492 c -0.223,-1.6875 -0.336,-3.3789 -0.336,-5.0664 0,-9.0234 7.332,-14.1015 15.109,-14.1015 8.344,0 14.098,3.9531 16.801,11.1718 h 9.586 c -3.043,-12.8593 -13.645,-19.6289 -26.387,-19.6289 -19.281,0 -24.691,13.3125 -24.691,23.4571 0,22.3242 13.984,37.5468 29.992,37.5468 17.14,0 24.691,-9.3554 24.691,-25.8164 0,-3.0469 -0.558,-5.9804 -0.894,-7.5625 H 834.52" /><path
         id="path78"
         style="fill:#6a6253;fill-opacity:1;fill-rule:nonzero;stroke:none"
         d="m 951.699,63.4844 c 0,7.1133 -4.847,11.3867 -12.289,11.3867 -14.769,0 -22.668,-14.6563 -22.668,-27.3984 0,-9.0157 3.723,-16.6914 14.434,-16.6914 8.234,0 14.32,4.8554 17.027,11.9531 h 9.586 c -3.387,-12.961 -13.195,-20.4102 -26.613,-20.4102 -15.899,0 -24.02,9.4727 -24.02,25.1485 0,18.4961 11.391,35.8554 32.254,35.8554 13.192,0 21.426,-6.3086 21.875,-19.8437 h -9.586" /><path
         id="path80"
         style="fill:#6a6253;fill-opacity:1;fill-rule:nonzero;stroke:none"
         d="m 987.574,30.7813 c 13.976,0 21.646,16.1328 21.646,27.625 0,9.1445 -4.84,16.4648 -15.333,16.4648 -14.657,0 -22.324,-16.0039 -22.324,-28.0742 0,-9.5781 5.523,-16.0156 16.011,-16.0156 z m 6.992,52.5468 c 15.564,0 24.244,-8.5625 24.244,-24.1289 0,-19.0547 -11.84,-36.875 -32.251,-36.875 -15.336,0 -24.582,10.2656 -24.582,24.3633 0,19.0547 12.179,36.6406 32.589,36.6406" /><path
         id="path82"
         style="fill:#6a6253;fill-opacity:1;fill-rule:nonzero;stroke:none"
         d="m 1031.34,81.9805 h 8.9 l -2.14,-8.6797 0.23,-0.2266 c 4.96,6.086 12.29,10.2539 20.3,10.2539 7.33,0 12.96,-2.9297 14.66,-10.4843 4.5,6.2109 12.17,10.4843 19.95,10.4843 8.23,0 16.24,-3.6015 16.24,-13.0742 0,-3.3906 -0.9,-8.3516 -1.69,-11.6133 l -7.33,-34.9609 h -9.59 l 8.12,36.9844 c 0.45,1.8086 0.91,4.6289 0.91,6.3164 0,4.5117 -3.84,7.8906 -8.91,7.8906 -5.41,0 -11.39,-3.8242 -14.66,-8.0078 -3.16,-3.3789 -4.4,-8.1133 -5.41,-13.0742 l -6.43,-30.1094 h -9.59 l 6.99,33.2617 c 1.02,4.5117 1.81,8.918 1.81,10.2656 0,4.8516 -2.93,7.6641 -8.12,7.6641 -5.3,0 -10.94,-3.6016 -14.32,-7.4414 -4.06,-3.9453 -4.96,-7.4414 -6.2,-13.1914 l -6.54,-30.5586 h -9.58 l 12.4,58.3008" /><path
         id="path84"
         style="fill:#6a6253;fill-opacity:1;fill-rule:nonzero;stroke:none"
         d="m 1146.6,74.8711 c -14.54,0 -22.78,-16.7969 -22.78,-28.9727 0,-8.6796 5.19,-15.1171 14.66,-15.1171 15.23,0 23.12,15.789 23.12,28.6445 0,9.4687 -4.51,15.4453 -15,15.4453 z m -24.8,7.1094 h 9.02 l -2.04,-8.3477 h 0.23 c 5.75,7.5586 11.5,9.6953 19.29,9.6953 14.88,0 22.89,-9.6953 22.89,-23.9023 0,-17.6992 -11.96,-37.1016 -32.37,-37.1016 -7.1,0 -15.9,2.4805 -18.15,10.2656 h -0.23 l -6.2,-31.23433 h -9.47 l 17.03,80.62503" /><path
         id="path86"
         style="fill:#6a6253;fill-opacity:1;fill-rule:nonzero;stroke:none"
         d="m 1190.82,30.7813 c 7.44,0 12.97,2.4804 16.35,7.6757 3.16,4.3946 3.72,9.5782 5.08,14.9883 h -0.23 c -4.17,-2.4765 -11.73,-3.0351 -18.72,-3.9414 -6.88,-1.0195 -12.97,-3.1562 -12.97,-10.5976 0,-5.4102 5.08,-8.125 10.49,-8.125 z m -12.97,33.6054 c 1.92,12.9649 12.86,18.9414 25.26,18.9414 11.27,0 21.31,-3.0351 21.31,-14.8828 0,-3.2695 -1.12,-7.4375 -1.8,-10.5937 l -3.72,-15.8985 c -0.45,-2.375 -1.58,-5.6445 -1.58,-8.3515 0,-2.7032 1.24,-3.6016 2.82,-3.6016 0.9,0 2.14,0.4492 3.04,0.7813 l -1.47,-7.1016 c -1.46,-0.7891 -4.17,-1.3555 -5.86,-1.3555 -5.3,0 -8.12,3.1641 -7.55,8.2305 l -0.23,0.2266 c -4.06,-5.4102 -9.7,-8.4571 -19.51,-8.4571 -9.69,0 -17.81,4.5117 -17.81,16.4649 0,16.914 16.57,18.0468 29.43,19.1718 10.15,0.9063 14.66,1.4649 14.66,9.2461 0,6.3164 -6.66,7.6641 -11.73,7.6641 -7.33,0 -14.55,-2.9297 -15.67,-10.4844 h -9.59" /><path
         id="path88"
         style="fill:#6a6253;fill-opacity:1;fill-rule:nonzero;stroke:none"
         d="m 1236.84,81.9805 h 9.24 l -1.8,-8.7969 h 0.23 c 4.85,6.543 12.74,10.1445 20.74,10.1445 10.94,0 16.24,-4.7343 16.24,-14.9883 0,-2.4804 -0.67,-6.8867 -1.69,-11.3984 l -7.1,-33.2617 h -9.58 l 7.44,34.0547 c 0.45,2.1484 1.35,6.9922 1.35,9.0234 0,5.5274 -4.51,8.1133 -10.15,8.1133 -5.3,0 -10.83,-2.9297 -14.44,-6.7656 -3.37,-2.9297 -5.18,-7.5508 -6.42,-12.1758 l -6.77,-32.25 h -9.58 l 12.29,58.3008" /><path
         id="path90"
         style="fill:#6a6253;fill-opacity:1;fill-rule:nonzero;stroke:none"
         d="M 1300.9,13.7617 C 1296.16,6.19922 1291.88,0 1282.07,0 c -2.26,0 -4.85,0.566406 -6.65,1.46484 l 1.69,7.78125 c 1.46,-0.89843 3.83,-1.57812 5.52,-1.57812 4.29,0 6.77,2.59373 9.03,6.31643 l 5.85,9.6953 -10.25,58.3008 h 10.25 l 6.78,-46.3438 h 0.22 l 24.46,46.3438 h 10.49 L 1300.9,13.7617" /><path
         id="path92"
         style="fill:#6a6253;fill-opacity:1;fill-rule:nonzero;stroke:none"
         d="m 1350.53,36.1992 h 12.52 l -2.71,-12.5195 h -12.52 z m -9.36,42.5117 c 1.02,15.1055 11.84,26.3871 27.29,26.3871 11.28,0 23.35,-5.8714 23.35,-18.6058 0,-23.2305 -24.7,-22.7813 -28.42,-39.6953 l -0.45,-2.4805 h -9.37 c 0.91,5.1875 2.26,10.2617 5.65,14.5508 2.7,3.6055 6.53,6.5312 11.72,10.1445 5.3,3.7227 10.71,8.6836 10.71,15.7852 0,8.0078 -5.41,11.8437 -12.97,11.8437 -10.7,0 -17.02,-7.8906 -17.92,-17.9297 h -9.59" /><path
         id="path94"
         style="fill:#6a6253;fill-opacity:1;fill-rule:nonzero;stroke:none"
         d="m 1425.19,104.188 h 12.52 C 1434.78,91.5625 1434.78,76.4531 1419,75.0977 l 1.11,5.4179 c 5.98,0.9024 7.35,6.086 8.69,11.1641 h -6.3 z m -20.51,0 h 12.5 c -2.93,-12.6255 -2.93,-27.7349 -18.71,-29.0903 l 1.13,5.4179 c 5.98,0.9024 7.33,6.086 8.68,11.1641 h -6.31 l 2.71,12.5083" /></g></g></svg>